<svg width="46" height="57" viewBox="0 0 46 57" fill="none" xmlns="http://www.w3.org/2000/svg">
<path d="M45.8986 1.2856H45.7972H45.4592L44.0397 1.24913L41.7414 1.21265C39.4093 1.17618 37.1109 1.1397 34.7788 1.06675C25.518 0.92085 16.2234 0.8479 6.92873 0.8479H1.41954H0.371785H0.101396H0.0337982H0V0.884375L0.0675976 0.9938L0.337987 1.50445L1.38575 3.4741L2.23071 5.00605L2.80529 5.99088C3.58266 7.30398 4.39383 8.65355 5.37399 9.85723C6.35415 11.0974 7.50331 12.2281 8.82145 13.1035C10.1396 13.9789 11.5929 14.6355 13.0801 15.0002C14.263 15.292 15.446 15.4014 16.5951 15.4744C16.5951 15.8027 16.5951 16.0945 16.5951 16.3498C16.5951 16.9334 16.6289 17.4805 16.6289 18.0641V19.8149V21.2739C15.3446 21.8575 14.1278 22.6235 13.0801 23.6448C11.3902 25.2132 10.072 27.2923 9.36223 29.5537C8.61866 31.8517 8.44967 34.259 8.65246 36.6299C8.88905 39.0008 9.63262 41.3716 10.917 43.3778C11.2888 43.9978 11.7619 44.545 12.2013 45.0921C12.7083 45.6027 13.1815 46.1134 13.7561 46.5511C14.2292 46.9523 14.7362 47.2806 15.2432 47.6089C14.939 48.3019 14.601 48.9584 14.1954 49.615C14.094 49.7974 13.9927 49.9433 13.8913 50.1256C13.7561 50.308 13.7223 50.381 13.6209 50.5269C13.4181 50.7822 13.1477 51.0375 12.8097 51.3658L12.6745 51.5117L12.5055 51.6941C12.4041 51.84 12.2689 52.0223 12.1675 52.1682C11.9647 52.533 11.8295 52.8977 11.7957 53.299C11.7619 53.7002 11.9309 54.1014 12.0999 54.4297C12.2013 54.5756 12.3027 54.758 12.4717 54.9039C12.6069 55.0498 12.7759 55.1957 12.9111 55.3051C13.5533 55.7428 14.0603 55.8522 14.4996 55.9252C14.9728 56.0346 15.4122 56.0711 15.8516 56.0711C16.7303 56.1076 17.5415 56.0711 18.3527 56.0346C19.975 55.9252 21.5974 55.7428 23.1521 55.5969C23.5239 55.5604 23.9295 55.524 24.2675 55.524C24.6054 55.524 25.0448 55.524 25.4504 55.524H27.8501C30.892 55.524 33.3255 54.9768 33.3255 54.2838C33.3255 53.5908 30.8582 53.0436 27.8501 53.0436H25.4504C25.0448 53.0436 24.673 53.0436 24.2337 53.0436C23.7943 53.0436 23.3887 53.0801 22.9831 53.1166C21.3608 53.2625 19.806 53.4813 18.2513 53.5543C17.4739 53.5908 16.6965 53.6273 15.9868 53.5908C15.615 53.5543 15.277 53.5543 14.939 53.4813C14.77 53.4449 14.6348 53.4084 14.4996 53.3719L14.3982 53.3354C14.3644 53.3354 14.3644 53.3354 14.3644 53.299L14.2968 53.2625L14.432 53.1166C14.7024 52.8613 15.0066 52.533 15.3446 52.1682C15.4798 51.9859 15.7164 51.6941 15.8178 51.5482C15.953 51.3658 16.0544 51.1834 16.1896 51.001C16.629 50.2715 17.0345 49.5056 17.4063 48.6666C18.0147 48.9584 18.6569 49.1043 19.299 49.3232C19.9412 49.4691 20.6172 49.6515 21.2932 49.7244C22.6113 49.9068 23.9633 49.9068 25.3152 49.7609C26.6334 49.615 27.9515 49.2867 29.2359 48.7761C29.6076 48.6302 29.9456 48.4843 30.2836 48.3019C30.4526 48.5937 30.6216 48.8855 30.7906 49.1773C31.6018 50.5633 32.4467 51.9859 33.0889 53.4084C33.2241 53.7002 33.2917 53.919 33.3593 54.0649C33.3593 54.1014 33.4269 54.1014 33.4269 54.1379C33.4269 54.1744 33.3931 54.2108 33.3931 54.2473C33.3931 54.2838 33.4269 54.3203 33.4945 54.3203C33.5283 54.3203 33.5959 54.3203 33.6297 54.2473C33.6973 54.2108 33.6973 54.1379 33.7311 54.0649C33.7987 53.8096 33.7311 53.4813 33.5959 53.1166C32.9875 51.5482 32.2101 50.1256 31.4666 48.6666C31.3314 48.3748 31.1624 48.1195 31.0272 47.8277C31.6356 47.463 32.2101 47.0982 32.7509 46.6605C34.9816 44.9462 36.6716 42.3929 37.5165 39.5844C37.8883 38.2348 37.9559 36.9582 37.7869 36.0463C37.6179 35.1344 37.3475 34.6238 37.0434 34.6238C36.7392 34.6238 36.4012 35.1344 36.1646 35.9004C35.8942 36.6664 35.6238 37.6877 35.3196 38.8184C34.6098 41.1528 33.2579 43.1954 31.399 44.6179C30.4864 45.3109 29.4724 45.931 28.3909 46.3322C27.3093 46.7335 26.194 47.0617 25.011 47.1712C23.8619 47.3171 22.6789 47.3171 21.5298 47.1347C20.9552 47.0982 20.3806 46.9158 19.806 46.8064C19.2652 46.624 18.6907 46.4781 18.1499 46.2228C17.6091 46.0404 17.1021 45.7122 16.5951 45.4568C16.122 45.1286 15.615 44.8368 15.1756 44.4355C14.7024 44.0708 14.3306 43.6331 13.8913 43.2319C13.5195 42.7577 13.1139 42.32 12.8435 41.8093C11.7957 40.168 11.1536 38.2348 10.9508 36.2287C10.748 34.1861 10.8832 32.107 11.4578 30.1738C12.0323 28.2771 13.0801 26.5263 14.4658 25.1767C15.8516 23.7907 17.5753 22.8423 19.4004 22.2587C21.2256 21.6387 23.2197 21.4563 25.1462 21.6751C27.0727 21.8575 28.9993 22.4411 30.6892 23.4624C32.3791 24.4837 33.9001 25.9062 34.914 27.6935C35.9618 29.4808 36.5364 31.5963 36.7054 33.7119C36.7392 34.259 36.9082 34.5508 37.0434 34.5508C37.1785 34.5508 37.3137 34.259 37.3137 33.6754C37.2799 31.4504 36.8068 29.1525 35.7928 27.1464C34.7788 25.1038 33.2241 23.4259 31.399 22.1858C31.0272 21.9305 30.6216 21.6751 30.1822 21.4563C30.2498 20.7997 30.3174 20.1432 30.3512 19.4866C30.4188 18.6477 30.4526 17.7723 30.4188 16.8969C30.4188 16.6781 30.4188 16.4592 30.385 16.2039C30.3512 15.985 30.3512 15.7297 30.3174 15.5109L30.2498 15.1461C30.216 15.0367 30.1822 14.8908 30.1484 14.7449C30.6554 14.526 30.9596 14.3072 30.9596 14.0519C30.9596 13.5777 29.9794 13.2129 28.5599 12.9941C28.2219 12.8847 27.9177 12.8117 27.6473 12.7752C27.0389 12.6658 26.4644 12.6658 25.9236 12.6658C24.8082 12.6658 23.7267 12.7388 22.6451 12.7752C22.1043 12.8117 21.5636 12.8482 21.0566 12.8847H19.468C19.3328 12.8847 19.1976 12.8847 19.0625 12.9211C18.5893 12.9211 18.1161 12.9211 17.6429 12.8847C16.2234 12.8482 14.939 12.7388 13.6547 12.447C12.3703 12.1552 11.1874 11.608 10.1058 10.8785C7.94269 9.41953 6.28655 7.08513 4.83321 4.53188L4.29243 3.58353L3.98824 3.3282H6.96253C16.2572 3.3282 25.518 3.25525 34.8126 3.10935C37.1447 3.07288 39.4431 3.0364 41.7752 2.96345L42.6539 2.92698L42.9581 2.8905C43.1271 2.8905 43.4989 2.78108 43.2961 3.0364L43.1609 3.3282L43.0933 3.4741L42.9243 3.80238C42.6539 4.3495 42.3835 4.89663 42.0794 5.40728C41.5048 6.46505 40.8964 7.48635 40.2204 8.47118C39.5445 9.456 38.7671 10.3314 37.9221 11.0974C37.5165 11.4986 37.0434 11.8269 36.5702 12.1552C36.097 12.447 35.6238 12.7388 35.083 12.9576C34.576 13.2129 34.0353 13.3588 33.4945 13.5412C33.2241 13.6142 32.9537 13.6506 32.6833 13.7236L32.2777 13.7965L31.8722 13.833C31.2976 13.8695 30.9934 14.0519 30.9934 14.1978C30.9934 14.3437 31.2976 14.4896 31.906 14.4531H32.3453L32.7847 14.3801C33.0889 14.3437 33.3593 14.3072 33.6635 14.2707C34.2381 14.1248 34.8464 14.0154 35.3872 13.7601C35.9618 13.5777 36.5026 13.2494 37.0434 12.9941C37.5503 12.6658 38.0911 12.3375 38.5643 11.9363C39.5107 11.1703 40.3894 10.2585 41.133 9.27363C41.9104 8.2888 42.5863 7.2675 43.2285 6.20973C43.5665 5.69908 43.8707 5.15195 44.1749 4.60483L44.7832 3.4741L45.493 2.12453L45.8648 1.4315L45.9662 1.24913L46 1.21265C45.9324 1.24913 45.9324 1.2856 45.8986 1.2856ZM28.1881 15.6203C28.2219 15.6932 28.2219 15.7297 28.2557 15.8391L28.2895 16.0945C28.3233 16.2404 28.3233 16.4592 28.3571 16.6416C28.3909 16.824 28.3909 17.0063 28.3909 17.2252C28.4247 17.9912 28.4247 18.7936 28.3909 19.6325C28.3571 20.0702 28.3571 20.4715 28.3233 20.9092C27.3431 20.5444 26.3292 20.2891 25.3152 20.1432C23.1859 19.8149 21.0228 19.9243 18.9273 20.5444V19.9243V18.1735C18.9273 17.5899 18.8935 16.9699 18.8935 16.3863C18.8935 16.1309 18.8935 15.8391 18.8935 15.6203C21.327 15.6568 23.7267 15.6203 26.1264 15.5838C26.8699 15.5838 27.5459 15.5109 28.1543 15.4379C28.1205 15.4379 28.1543 15.5109 28.1881 15.6203Z" fill="white"/>
<path d="M32.1426 34.7331C31.8384 34.7331 31.5004 35.0614 31.2977 35.5356C31.0611 36.0098 30.8245 36.6298 30.6555 37.3229C30.2161 38.7454 29.4049 39.9855 28.2558 40.8609C27.1404 41.7363 25.7547 42.2835 24.3013 42.4294C23.5915 42.5023 22.848 42.5023 22.1382 42.4294C21.4284 42.3564 20.7187 42.174 20.0765 41.8822C19.7385 41.7728 19.4343 41.554 19.1301 41.4081C18.8259 41.1892 18.5217 41.0433 18.2514 40.788C17.9472 40.5691 17.7444 40.3138 17.474 40.0585C17.2712 39.7667 17.0008 39.5114 16.8318 39.1831C16.1896 38.1983 15.8178 37.0311 15.6827 35.7544C15.5475 34.5143 15.6489 33.2012 15.9868 32.034C16.3248 30.8668 16.967 29.809 17.812 28.9701C18.6569 28.0947 19.7047 27.5111 20.8539 27.1099C22.003 26.7086 23.2198 26.5992 24.4365 26.7086C25.6533 26.8181 26.87 27.1463 27.9178 27.7664C28.9993 28.3865 29.9457 29.2619 30.6217 30.3926C31.2977 31.5233 31.7032 32.8364 31.8384 34.186C31.8722 34.5508 32.0074 34.7696 32.1426 34.7331C32.2778 34.7331 32.413 34.5508 32.413 34.1495C32.413 32.6905 32.1426 31.1951 31.4666 29.8455C30.8245 28.4959 29.7767 27.3652 28.5938 26.5263C27.4108 25.6873 26.0251 25.1767 24.6055 24.9579C23.186 24.739 21.7326 24.7755 20.3131 25.1767C18.9273 25.5779 17.5416 26.2345 16.3924 27.2922C15.2433 28.35 14.3645 29.7361 13.8575 31.268C13.3505 32.8 13.2491 34.4413 13.3843 36.0098C13.5195 37.6147 14.0265 39.2196 14.9053 40.5691C15.1419 41.0068 15.4799 41.3716 15.784 41.7363C16.122 42.0646 16.46 42.4294 16.8318 42.7212C17.2036 43.0494 17.6092 43.2683 17.981 43.5236C18.3865 43.7425 18.7921 43.9613 19.2315 44.1437C20.0765 44.5084 20.9552 44.7273 21.8678 44.8367C22.7466 44.9826 23.6591 44.9461 24.5379 44.8732C26.3292 44.6543 28.0868 43.9978 29.5739 42.8306C31.0949 41.6634 32.244 39.9491 32.8186 38.0524C33.089 37.1405 33.0552 36.2651 32.92 35.645C32.751 35.0979 32.4806 34.7331 32.1426 34.7331Z" fill="white"/>
<path d="M23.017 28.5324C22.4424 29.6631 22.172 30.7939 22.172 31.9246V34.0037C22.172 34.1496 22.679 34.2955 23.3212 34.2955C23.9633 34.2955 24.4703 34.1496 24.4703 34.0037V31.9246C24.4703 30.7939 24.1661 29.6631 23.6254 28.5324C23.5916 28.4594 23.0508 28.4594 23.017 28.5324Z" fill="white"/>
</svg>
