<svg width="63" height="64" viewBox="0 0 63 64" fill="none" xmlns="http://www.w3.org/2000/svg">
<path d="M57.4921 0.531128H4.81109C3.53557 0.532668 2.31269 1.08017 1.41075 2.05351C0.508805 3.02685 0.00145325 4.34655 0 5.72308V57.9319C0.00145325 59.3084 0.508805 60.6281 1.41075 61.6014C2.31269 62.5748 3.53557 63.1223 4.81109 63.1238H57.4921C58.7677 63.1223 59.9905 62.5748 60.8925 61.6014C61.7944 60.6281 62.3018 59.3084 62.3032 57.9319V5.72308C62.3018 4.34655 61.7944 3.02685 60.8925 2.05351C59.9905 1.08017 58.7677 0.532668 57.4921 0.531128ZM40.6829 16.8388H21.6203V16.2843C21.6203 11.696 25.896 7.96319 31.1516 7.96319C36.4072 7.96319 40.6829 11.696 40.6829 16.2843V16.8388ZM31.1516 5.23163C27.2788 5.23163 23.8289 6.91455 21.6203 9.52211V3.26264H40.6829V9.52211C38.4744 6.91455 35.0245 5.23163 31.1516 5.23163ZM43.214 3.26269H57.4921C58.0966 3.2634 58.6761 3.52285 59.1035 3.9841C59.531 4.44536 59.7714 5.07076 59.7721 5.72308V57.9319C59.7714 58.5842 59.531 59.2096 59.1035 59.6709C58.6761 60.1321 58.0966 60.3916 57.4921 60.3923H4.81109C4.20663 60.3916 3.62712 60.1321 3.19969 59.6709C2.77226 59.2096 2.53182 58.5842 2.53113 57.9319V5.72308C2.53182 5.07076 2.77226 4.44536 3.19969 3.9841C3.62712 3.52285 4.20663 3.2634 4.81109 3.26269H19.0892V19.5704H43.214V3.26269Z" fill="white"/>
<path d="M32.4172 9.6839H29.8861V15.1897H32.4172V9.6839Z" fill="white"/>
<path d="M21.9492 30.358C22.1401 28.5891 21.7069 26.8075 20.7359 25.3676C19.7649 23.9277 18.3272 22.935 16.7089 22.587C16.5619 22.556 16.4149 22.525 16.268 22.4941C15.4088 22.3131 14.5246 22.32 13.668 22.5145C12.8113 22.7089 11.9995 23.087 11.2807 23.6263C10.5619 24.1656 9.95075 24.8551 9.48343 25.654C9.0161 26.4528 8.70213 27.3448 8.56011 28.2771C7.46236 35.3801 8.5051 42.6759 11.535 49.0918C11.9307 49.9346 12.4791 50.683 13.1478 51.2928C13.8164 51.9026 14.5917 52.3613 15.4277 52.6418C16.2636 52.9223 17.1432 53.0188 18.0144 52.9257C18.8855 52.8326 19.7305 52.5517 20.4992 52.0997L20.8937 51.8678C22.3397 51.0097 23.4334 49.5956 23.9573 47.9068C24.4811 46.2181 24.3967 44.3784 23.7208 42.7538C22.1251 38.8636 21.5138 34.5863 21.9492 30.358Z" fill="white"/>
<path d="M46.0353 22.4941C45.8883 22.525 45.7414 22.556 45.5944 22.587C43.976 22.935 42.5383 23.9277 41.5673 25.3676C40.5963 26.8075 40.1632 28.5891 40.354 30.358C40.7894 34.5863 40.1781 38.8635 38.5824 42.7537C37.9065 44.3783 37.8221 46.218 38.3459 47.9067C38.8698 49.5955 39.9635 51.0095 41.4095 51.8676L41.804 52.0996C42.5727 52.5516 43.4177 52.8325 44.2888 52.9256C45.16 53.0187 46.0396 52.9222 46.8756 52.6417C47.7115 52.3612 48.4868 51.9024 49.1554 51.2927C49.8241 50.6829 50.3725 49.9345 50.7682 49.0917C53.7981 42.6758 54.8409 35.38 53.7431 28.277C53.6011 27.3448 53.2871 26.4528 52.8198 25.6539C52.3525 24.8551 51.7413 24.1656 51.0225 23.6263C50.3037 23.087 49.4919 22.7089 48.6353 22.5145C47.7786 22.32 46.8945 22.3131 46.0353 22.4941Z" fill="white"/>
</svg>
