<svg width="49" height="55" viewBox="0 0 49 55" fill="none" xmlns="http://www.w3.org/2000/svg">
<path d="M10.2896 17.1795C6.65342 17.1792 3.51053 15.9671 1.70777 13.9604C1.68252 13.9321 1.65836 13.8879 1.64832 13.83C1.63824 13.772 1.64474 13.7129 1.66426 13.6628L1.6646 13.6619C2.99483 10.2398 6.95626 7.24982 11.9133 6.24421C16.7768 5.25852 21.3632 6.43107 23.7667 8.96748L24.5338 9.77695L25.2552 8.92653C26.2526 7.75072 27.3192 6.64642 28.4481 5.62045L28.4493 5.61938C30.0132 4.19352 31.7062 2.94407 33.502 1.88974C33.5819 1.84393 33.6656 1.83731 33.7425 1.86229C33.8231 1.88845 33.9144 1.95644 33.9756 2.07932C34.0376 2.20387 34.0535 2.35781 34.0135 2.50104C33.9738 2.64339 33.8898 2.74004 33.8057 2.7888L33.8023 2.79077C32.0489 3.81675 30.3986 5.03266 28.8767 6.41899L28.876 6.41962C27.2792 7.87697 25.8093 9.48697 24.4841 11.2295L24.2465 11.5418L24.2848 11.9324C24.4451 13.5673 24.9207 15.6296 25.6157 17.7835C26.9838 22.0303 29.1727 26.69 32.108 31.6334L32.5597 32.3942L33.3699 32.0385C35.6817 31.0235 38.2507 30.9464 40.6092 31.8195C42.8779 32.6593 44.8201 34.3303 46.0924 36.5608L46.2391 36.8352C47.1589 38.5551 47.6459 40.511 47.6466 42.5059C47.6473 44.5009 47.1617 46.4572 46.2432 48.1778C45.3248 49.8981 44.0086 51.3181 42.4339 52.3026C40.8605 53.2863 39.0817 53.8028 37.2751 53.8071C36.3677 53.8064 35.4637 53.6774 34.586 53.4227L34.585 53.4224C32.7028 52.8784 30.9909 51.7675 29.6526 50.2064C28.3138 48.6447 27.4056 46.698 27.0419 44.5887C26.6782 42.4793 26.8756 40.3026 27.609 38.3127C28.3424 36.3231 29.5787 34.6089 31.1651 33.3615L31.8533 32.8205L31.408 32.0668C28.4594 27.0758 26.2753 22.394 24.9071 18.1501C24.5337 16.9891 24.2302 15.8845 23.9989 14.8553L23.4688 12.4971L22.1778 14.5405C17.7121 21.6087 15.6513 28.9482 15.1102 31.0644L14.9085 31.8531L15.6399 32.2105C17.7945 33.2636 19.5668 35.0898 20.6465 37.4016C21.7266 39.7142 22.0424 42.3625 21.5363 44.9019C21.0302 47.441 19.7365 49.7023 17.887 51.3172C16.0394 52.9304 13.7481 53.803 11.3955 53.8071C10.489 53.8064 9.58583 53.6773 8.70888 53.4227C6.13631 52.6756 3.90896 50.8769 2.51062 48.376C1.11132 45.8733 0.65945 42.8742 1.25861 40.011C1.85764 37.1483 3.45532 34.6666 5.69333 33.0715C7.92826 31.4786 10.6343 30.8872 13.2497 31.4047L14.1704 31.5869L14.4106 30.6796C15.7501 25.6189 17.6991 20.7715 20.2067 16.2614L21.9465 13.1322L18.837 14.907C17.2245 15.8274 15.4938 16.4761 13.7047 16.8325L13.7047 16.8325L13.7006 16.8334C12.5757 17.0624 11.4338 17.1782 10.2896 17.1795ZM18.0242 41.8482L18.0244 41.8468C17.7135 41.7557 17.3875 41.7314 17.0662 41.7762L17.2042 42.7666L17.0662 41.7762C16.745 41.8209 16.4388 41.9332 16.1649 42.1032C15.8913 42.273 15.6565 42.4963 15.4711 42.7565C15.2859 43.0166 15.1527 43.3096 15.0761 43.6181C14.8495 44.5288 14.3546 45.3198 13.683 45.8768C13.0133 46.4323 12.2041 46.7261 11.3812 46.7283C11.3807 46.7283 11.3802 46.7283 11.3797 46.7283L18.0242 41.8482ZM37.2607 51.707H37.2623C39.1732 51.704 41.0201 51.0211 42.5184 49.7792C44.0141 48.5393 45.0779 46.8134 45.5608 44.8758C45.6394 44.5681 45.6609 44.248 45.6244 43.9328L44.6311 44.0476L45.6244 43.9328C45.5878 43.6162 45.4933 43.3078 45.3437 43.0253L44.4599 43.4931L45.3437 43.0253C45.1941 42.7426 44.9913 42.4897 44.7438 42.2837C44.4961 42.0776 44.2085 41.9229 43.8966 41.8327C43.5845 41.7425 43.2573 41.7195 42.9353 41.7661C42.6134 41.8126 42.3069 41.927 42.0334 42.0993C41.7601 42.2713 41.5262 42.4968 41.3422 42.7592C41.16 43.0191 41.0295 43.3112 40.9549 43.6183C40.7285 44.5291 40.2337 45.3202 39.5621 45.8772C38.892 46.4329 38.0822 46.7267 37.2588 46.7283C36.6026 46.7289 35.9904 47.0111 35.5513 47.4848L36.2849 48.1645L35.5513 47.4848C35.1143 47.9565 34.8806 48.581 34.8806 49.2177C34.8806 49.8543 35.1143 50.4788 35.5513 50.9505L36.2849 50.2708L35.5513 50.9505C35.9908 51.4247 36.6038 51.707 37.2607 51.707Z" stroke="white" stroke-width="2"/>
</svg>
