<svg width="262" height="254" viewBox="0 0 262 254" fill="none" xmlns="http://www.w3.org/2000/svg">
<path d="M256.81 202.313C264.251 212.264 262.272 226.514 251.419 232.564C223.561 248.092 191.716 255.472 159.57 253.597C119.898 251.282 82.3207 235.021 53.4764 207.686C24.6321 180.35 6.37743 143.699 1.93746 104.208C-1.66018 72.2096 4.00005 40.0148 18.0101 11.3638C23.4686 0.200971 37.5918 -2.53945 47.9286 4.35655C58.2654 11.2526 60.8362 25.1755 55.9272 36.5906C47.5039 56.1778 44.2433 77.7394 46.654 99.1809C49.9082 128.126 63.2879 154.989 84.4293 175.024C105.571 195.06 133.113 206.979 162.191 208.675C183.731 209.931 205.086 205.518 224.193 196.056C235.328 190.541 249.369 192.361 256.81 202.313Z" fill="url(#paint0_linear_3_156)"/>
<defs>
<linearGradient id="paint0_linear_3_156" x1="166.236" y1="-83.3531" x2="266.754" y2="216.427" gradientUnits="userSpaceOnUse">
<stop stop-color="#FA3A10" stop-opacity="0.97"/>
<stop offset="1" stop-opacity="0.97"/>
</linearGradient>
</defs>
</svg>
