<svg width="86" height="39" viewBox="0 0 86 39" fill="none" xmlns="http://www.w3.org/2000/svg">
<path d="M3.25 25.7128V25.9628H3.5H5.25H5.5V25.7128V13.0216V12.7716H5.25H3.5H3.25V13.0216V25.7128ZM7 29.2399H1.75C1.35859 29.2399 0.978971 29.0723 0.695939 28.7669C0.412311 28.4608 0.25 28.0418 0.25 27.6014V11.133C0.25 10.6926 0.412311 10.2736 0.695939 9.96752C0.978972 9.66207 1.35859 9.49445 1.75 9.49445H7C7.39141 9.49445 7.77103 9.66207 8.05406 9.96752C8.33769 10.2736 8.5 10.6926 8.5 11.133V27.6014C8.5 28.0418 8.33769 28.4608 8.05406 28.7669C7.77103 29.0723 7.39141 29.2399 7 29.2399Z" fill="white" stroke="#181818" stroke-width="0.5"/>
<path d="M8.5 29.9243V30.1743H8.75H12.25H12.5V29.9243V8.81005V8.56005H12.25H8.75H8.5V8.81005V29.9243ZM5.94594 32.9784L5.76366 33.1473L5.94594 32.9784C5.66231 32.6723 5.5 32.2534 5.5 31.8129V6.92147C5.5 6.48101 5.66231 6.06206 5.94594 5.75597C6.22897 5.45052 6.60859 5.2829 7 5.2829H14C14.1942 5.2829 14.3871 5.32415 14.5677 5.40489C14.7484 5.48566 14.9138 5.60461 15.0541 5.75597C15.1943 5.90736 15.3065 6.08811 15.3834 6.28833C15.4602 6.48857 15.5 6.70376 15.5 6.92147V31.8129C15.5 32.0306 15.4602 32.2458 15.3834 32.446C15.3065 32.6463 15.1943 32.827 15.0541 32.9784C14.9138 33.1298 14.7484 33.2487 14.5677 33.3295C14.3871 33.4102 14.1942 33.4515 14 33.4515H7C6.60859 33.4515 6.22897 33.2839 5.94594 32.9784Z" fill="white" stroke="#181818" stroke-width="0.5"/>
<path d="M15.5 34.4758V34.7258H15.75H23.8875H24.1375V34.4758V4.25854V4.00854H23.8875H15.75H15.5V4.25854V34.4758ZM25.6375 38.0029H14C13.6086 38.0029 13.229 37.8353 12.9459 37.5299C12.6623 37.2238 12.5 36.8048 12.5 36.3644V2.36996C12.5 1.9295 12.6623 1.51054 12.9459 1.20446C13.229 0.89901 13.6086 0.731384 14 0.731384H25.6375C26.0289 0.731384 26.4085 0.89901 26.6916 1.20445C26.9752 1.51054 27.1375 1.9295 27.1375 2.36996V36.3644C27.1375 36.8048 26.9752 37.2238 26.6916 37.5299C26.4085 37.8353 26.0289 38.0029 25.6375 38.0029Z" fill="white" stroke="#181818" stroke-width="0.5"/>
<path d="M79.6553 25.7128V25.9628H79.9053H81.6553H81.9053V25.7128V13.0216V12.7716H81.6553H79.9053H79.6553V13.0216V25.7128ZM83.4053 29.2399H78.1553C77.7639 29.2399 77.3842 29.0723 77.1012 28.7669C76.8176 28.4608 76.6553 28.0418 76.6553 27.6014V11.133C76.6553 10.6926 76.8176 10.2736 77.1012 9.96752C77.3842 9.66207 77.7639 9.49445 78.1553 9.49445H83.4053C83.7967 9.49445 84.1763 9.66207 84.4593 9.96752C84.743 10.2736 84.9053 10.6926 84.9053 11.133V27.6014C84.9053 28.0418 84.743 28.4608 84.4593 28.7669C84.1763 29.0723 83.7967 29.2399 83.4053 29.2399Z" fill="white" stroke="#181818" stroke-width="0.5"/>
<path d="M72.6377 29.9243V30.1743H72.8877H76.3877H76.6377V29.9243V8.81005V8.56005H76.3877H72.8877H72.6377V8.81005V29.9243ZM70.0836 32.9784L69.9014 33.1473L70.0836 32.9784C69.8 32.6723 69.6377 32.2534 69.6377 31.8129V6.92147C69.6377 6.48101 69.8 6.06206 70.0836 5.75597C70.3667 5.45052 70.7463 5.2829 71.1377 5.2829H78.1377C78.5291 5.2829 78.9087 5.45052 79.1918 5.75597C79.4754 6.06206 79.6377 6.48101 79.6377 6.92147V31.8129C79.6377 32.2534 79.4754 32.6723 79.1918 32.9784C78.9087 33.2839 78.5291 33.4515 78.1377 33.4515H71.1377C70.7463 33.4515 70.3667 33.2839 70.0836 32.9784Z" fill="white" stroke="#181818" stroke-width="0.5"/>
<path d="M61 34.4758V34.7258H61.25H69.3875H69.6375V34.4758V4.25854V4.00854H69.3875H61.25H61V4.25854V34.4758ZM71.1375 38.0029H59.5C59.1086 38.0029 58.729 37.8353 58.4459 37.5299C58.1623 37.2238 58 36.8048 58 36.3644V2.36996C58 1.9295 58.1623 1.51054 58.4459 1.20446C58.729 0.899009 59.1086 0.731384 59.5 0.731384H71.1375C71.5289 0.731384 71.9085 0.89901 72.1916 1.20446C72.4752 1.51054 72.6375 1.9295 72.6375 2.36996V36.3644C72.6375 36.8048 72.4752 37.2238 72.1916 37.5299C71.9085 37.8353 71.5289 38.0029 71.1375 38.0029Z" fill="white" stroke="#181818" stroke-width="0.5"/>
<path d="M27.1377 21.2557V21.5057H27.3877H57.7502H58.0002V21.2557V17.4785V17.2285H57.7502H27.3877H27.1377V17.4785V21.2557ZM59.5002 24.7828H25.6377C25.2463 24.7828 24.8667 24.6152 24.5836 24.3098C24.3 24.0037 24.1377 23.5847 24.1377 23.1443V15.5899C24.1377 15.1495 24.3 14.7305 24.5836 14.4244C24.8667 14.119 25.2463 13.9514 25.6377 13.9514H59.5002C59.8916 13.9514 60.2712 14.119 60.5543 14.4244C60.8379 14.7305 61.0002 15.1495 61.0002 15.5899V23.1443C61.0002 23.5847 60.8379 24.0037 60.5543 24.3098C60.2712 24.6152 59.8916 24.7828 59.5002 24.7828Z" fill="white" stroke="#181818" stroke-width="0.5"/>
</svg>
