<svg width="25" height="19" viewBox="0 0 25 19" fill="none" xmlns="http://www.w3.org/2000/svg">
<path d="M21.875 0H3.125C1.39922 0 0 1.39922 0 3.125V15.625C0 17.3508 1.39922 18.75 3.125 18.75H21.875C23.6008 18.75 25 17.3508 25 15.625V3.125C25 1.39922 23.6008 0 21.875 0ZM16.7313 8.33892L23.3459 2.67026C23.3917 2.81675 23.4375 2.96323 23.4375 3.125V15.625C23.4375 15.7333 23.3963 15.8295 23.375 15.9317L16.7313 8.33892ZM21.875 1.5625C21.9788 1.5625 22.0703 1.6022 22.168 1.62202L12.5 9.90908L2.83203 1.62202C2.92969 1.6022 3.02124 1.5625 3.125 1.5625H21.875ZM1.62432 15.9302C1.60293 15.8279 1.5625 15.7333 1.5625 15.625V3.125C1.5625 2.96323 1.60903 2.81675 1.65483 2.67026L8.26724 8.3374L1.62432 15.9302ZM3.125 17.1875C2.96709 17.1875 2.82363 17.1417 2.67944 17.0975L9.45435 9.35513L11.9919 11.5295C12.1376 11.6562 12.3192 11.7188 12.5 11.7188C12.6808 11.7188 12.8624 11.6562 13.0081 11.5295L15.5457 9.35518L22.3206 17.0975C22.1771 17.1417 22.0337 17.1875 21.875 17.1875H3.125Z" fill="#FA3A10"/>
</svg>
