<svg width="21" height="21" viewBox="0 0 21 21" fill="none" xmlns="http://www.w3.org/2000/svg">
<path d="M15.39 21.0001C14.5729 20.9941 13.7594 20.8915 12.9663 20.6946C10.2277 20.0338 7.40761 18.3576 5.02679 15.9747C2.64597 13.5918 0.967694 10.7712 0.306935 8.03515C-0.38882 5.15706 0.107402 2.69476 1.70262 1.09953L2.1581 0.644055C2.57136 0.231629 3.13135 0 3.7152 0C4.29904 0 4.85903 0.231629 5.27229 0.644055L7.88973 3.26097C8.30241 3.67409 8.53421 4.23414 8.53421 4.81806C8.53421 5.40199 8.30241 5.96204 7.88973 6.37516L6.3436 7.92076C7.0848 9.22138 8.09292 10.523 9.28437 11.7145C10.4758 12.906 11.7785 13.9146 13.0786 14.6558L14.6242 13.1097C14.8287 12.9051 15.0714 12.7429 15.3386 12.6322C15.6058 12.5215 15.8921 12.4645 16.1813 12.4645C16.4705 12.4645 16.7569 12.5215 17.0241 12.6322C17.2912 12.7429 17.534 12.9051 17.7384 13.1097L20.3553 15.7266C20.7681 16.1395 21 16.6995 21 17.2834C21 17.8673 20.7681 18.4273 20.3553 18.8402L19.8993 19.2957C18.7747 20.4224 17.2182 21.0001 15.39 21.0001ZM3.7152 1.56598C3.6318 1.56557 3.54915 1.5818 3.47211 1.61373C3.39506 1.64566 3.32516 1.69265 3.26651 1.75194L2.81051 2.20741C1.61592 3.402 1.26699 5.34145 1.82799 7.66533C2.42188 10.1271 3.95077 12.685 6.13258 14.8663C8.31439 17.0476 10.8718 18.5749 13.3341 19.1709C15.6585 19.7319 17.5969 19.383 18.7915 18.1884L19.2469 17.7329C19.3659 17.6138 19.4328 17.4523 19.4328 17.2839C19.4328 17.1156 19.3659 16.9541 19.2469 16.835L16.6305 14.2181C16.5114 14.0991 16.35 14.0322 16.1816 14.0322C16.0132 14.0322 15.8517 14.0991 15.7326 14.2181L13.7734 16.1774C13.6558 16.295 13.5038 16.3722 13.3395 16.3977C13.1752 16.4232 13.007 16.3958 12.8593 16.3194C11.2531 15.4889 9.63382 14.2797 8.17649 12.8224C6.71917 11.3651 5.51256 9.74685 4.67996 8.14066C4.60349 7.99299 4.576 7.82483 4.60145 7.6605C4.62689 7.49617 4.70397 7.34419 4.82151 7.22657L6.78132 5.26728C6.90033 5.14817 6.96718 4.98669 6.96718 4.81833C6.96718 4.64996 6.90033 4.48848 6.78132 4.36938L4.16441 1.75194C4.10557 1.69275 4.03556 1.64584 3.95845 1.61392C3.88133 1.582 3.79865 1.5657 3.7152 1.56598Z" fill="#FA3A10"/>
<path d="M16.2268 11.5808C16.019 11.5808 15.8197 11.4982 15.6728 11.3513C15.5259 11.2044 15.4433 11.0051 15.4433 10.7973C15.4418 9.42276 14.8951 8.10497 13.9232 7.13299C12.9514 6.161 11.6336 5.61421 10.2591 5.61255C10.0513 5.61255 9.85201 5.53 9.70507 5.38306C9.55813 5.23613 9.47559 5.03684 9.47559 4.82904C9.47559 4.62124 9.55813 4.42195 9.70507 4.27502C9.85201 4.12808 10.0513 4.04553 10.2591 4.04553C13.9818 4.04553 17.0103 7.0751 17.0103 10.7973C17.0103 11.0051 16.9278 11.2044 16.7808 11.3513C16.6339 11.4982 16.4346 11.5808 16.2268 11.5808Z" fill="#FA3A10"/>
<path d="M19.5384 11.5809C19.3306 11.5809 19.1314 11.4983 18.9844 11.3514C18.8375 11.2045 18.7549 11.0052 18.7549 10.7974C18.7549 6.11253 14.9419 2.30103 10.2591 2.30103C10.0513 2.30103 9.85201 2.21848 9.70507 2.07154C9.55813 1.9246 9.47559 1.72532 9.47559 1.51752C9.47559 1.30972 9.55813 1.11043 9.70507 0.963493C9.85201 0.816557 10.0513 0.734009 10.2591 0.734009C15.8079 0.734009 20.322 5.24858 20.322 10.7974C20.322 11.0052 20.2394 11.2045 20.0925 11.3514C19.9455 11.4983 19.7462 11.5809 19.5384 11.5809Z" fill="#FA3A10"/>
</svg>
