<svg width="30" height="30" viewBox="0 0 30 30" fill="none" xmlns="http://www.w3.org/2000/svg">
<circle cx="15" cy="15" r="15" fill="#FA3A10"/>
<path d="M15.4549 3.01772C16.5847 3 17.7081 3.0105 18.8301 3C18.8981 4.33948 19.3733 5.70389 20.3406 6.65091C21.3059 7.62156 22.6714 8.06586 24 8.21615V11.7397C22.7549 11.6984 21.5041 11.4359 20.3743 10.8925C19.8822 10.6667 19.4238 10.376 18.9751 10.0787C18.9693 12.6356 18.9855 15.1892 18.9589 17.7356C18.8916 18.9589 18.4934 20.1763 17.7916 21.1843C16.6624 22.8625 14.7026 23.9565 12.6896 23.9906C11.455 24.0622 10.2216 23.7209 9.16945 23.0922C7.42586 22.05 6.19894 20.1422 6.02024 18.0946C5.99952 17.6568 5.9924 17.2197 6.00988 16.7925C6.16527 15.1275 6.97782 13.5347 8.23906 12.4512C9.66863 11.1891 11.6712 10.588 13.5462 10.9437C13.5637 12.2398 13.5126 13.5347 13.5126 14.8308C12.656 14.55 11.655 14.6287 10.9066 15.1557C10.3601 15.5147 9.9451 16.0647 9.72885 16.6868C9.55015 17.1305 9.6013 17.6233 9.61166 18.0946C9.8169 19.5305 11.1791 20.7374 12.6333 20.6068C13.5974 20.5963 14.5213 20.0293 15.0237 19.1991C15.1862 18.9083 15.3682 18.6111 15.3779 18.2691C15.4627 16.7039 15.429 15.1452 15.4394 13.58C15.4465 10.0524 15.429 6.53475 15.4556 3.01838L15.4549 3.01772Z" fill="black"/>
</svg>
