<svg width="30" height="30" viewBox="0 0 30 30" fill="none" xmlns="http://www.w3.org/2000/svg">
<path d="M14.9997 0C6.71569 0 0 6.71595 0 15C0 23.2838 6.71569 30.0005 14.9997 30.0005C23.2841 30.0005 30 23.2841 30 15C30 6.71595 23.2841 0 14.9997 0ZM22.3221 11.2735C22.3221 11.2735 22.6787 13.041 21.399 16.1461C20.1188 19.2512 16.9509 22.1885 12.5874 22.4614C8.22362 22.7339 5.87328 20.8038 5.87328 20.8038C9.14644 21.0556 10.5939 19.7129 11.3702 19.2722C8.32815 18.8736 7.88749 16.5868 7.88749 16.5868C8.18109 16.7128 9.08315 16.6708 9.56583 16.545C6.58704 15.8108 6.52402 12.8107 6.52402 12.8107C6.52402 12.8107 7.63565 13.3772 8.26512 13.2721C5.3906 11.0901 7.06946 8.23685 7.06946 8.23685C10.8668 12.3911 14.8947 12.1602 14.8947 12.1602L14.9129 12.1875C14.8397 11.8949 14.8003 11.5889 14.8003 11.2737C14.8003 9.19675 16.4841 7.51323 18.5611 7.51323C19.6582 7.51323 20.6456 7.98345 21.3331 8.73301L21.357 8.71952C22.6994 8.63549 23.6858 7.92224 23.6858 7.92224C23.2771 9.11635 22.4087 9.67268 22.0461 9.85994C22.0508 9.8711 22.0552 9.88225 22.0593 9.89314C22.5285 9.77954 23.7872 9.47168 24.1267 9.37001C23.3919 10.7125 22.3221 11.2735 22.3221 11.2735Z" fill="#FA3A10"/>
</svg>
