<svg width="30" height="30" viewBox="0 0 30 30" fill="none" xmlns="http://www.w3.org/2000/svg">
<path fill-rule="evenodd" clip-rule="evenodd" d="M15 30C6.71575 30 0 23.2843 0 15C0 6.71575 6.71575 0 15 0C23.2843 0 30 6.71575 30 15C30 23.2843 23.2843 30 15 30ZM15.4944 23.3453C20.4122 23.3433 24.4119 19.3427 24.4138 14.4259C24.4148 12.0427 23.4879 9.80175 21.8039 8.11588C20.1199 6.42994 17.8804 5.50103 15.4943 5.5C10.578 5.5 6.57675 9.50106 6.57475 14.4189C6.57412 15.9909 6.98481 17.5253 7.76537 18.878L6.5 23.5L11.2283 22.2597C12.5311 22.9703 13.9979 23.3448 15.4908 23.3453H15.4944Z" fill="#FA3A10"/>
<path fill-rule="evenodd" clip-rule="evenodd" d="M11.4475 20.645L8.64162 21.3811L9.39056 18.6453L9.21431 18.3648C8.47219 17.1845 8.08025 15.8203 8.08081 14.4195C8.08244 10.332 11.4081 7.00659 15.4974 7.00659C17.4776 7.00728 19.3389 7.7794 20.7386 9.18072C22.1383 10.582 22.9087 12.4446 22.9079 14.4255C22.9062 18.5133 19.5806 21.8391 15.4945 21.8391H15.4915C14.1612 21.8385 12.8564 21.4812 11.7182 20.8057L11.4475 20.645ZM19.9881 16.547C19.9324 16.4541 19.7838 16.3983 19.5609 16.2867C19.3381 16.1752 18.2424 15.6361 18.0381 15.5617C17.8338 15.4873 17.6851 15.4502 17.5366 15.6732C17.3881 15.8963 16.9609 16.3983 16.8309 16.547C16.7009 16.6958 16.5709 16.7144 16.3481 16.6028C16.1252 16.4913 15.4071 16.256 14.5559 15.4967C13.8933 14.9057 13.446 14.1759 13.316 13.9528C13.186 13.7297 13.3022 13.609 13.4137 13.4979C13.514 13.398 13.6366 13.2375 13.7481 13.1075C13.8595 12.9773 13.8966 12.8843 13.9709 12.7357C14.0452 12.5869 14.0081 12.4568 13.9523 12.3452C13.8966 12.2337 13.4509 11.1367 13.2652 10.6904C13.0842 10.2558 12.9006 10.3147 12.7637 10.3078C12.6339 10.3013 12.4852 10.3 12.3366 10.3C12.1881 10.3 11.9466 10.3557 11.7423 10.5788C11.538 10.802 10.9622 11.3412 10.9622 12.4381C10.9622 13.5351 11.7609 14.5948 11.8723 14.7436C11.9837 14.8923 13.4438 17.1434 15.6795 18.1088C16.2112 18.3384 16.6263 18.4755 16.9501 18.5782C17.4839 18.7479 17.9698 18.724 18.3537 18.6665C18.782 18.6026 19.6723 18.1275 19.8581 17.6069C20.0437 17.0862 20.0437 16.64 19.9881 16.547Z" fill="#FA3A10"/>
</svg>
