<svg width="30" height="30" viewBox="0 0 30 30" fill="none" xmlns="http://www.w3.org/2000/svg">
<path d="M14.9997 0C6.71569 0 0 6.71595 0 15C0 23.2838 6.71569 30 14.9997 30C23.2841 30 30 23.2838 30 15C30 6.71595 23.2841 0 14.9997 0ZM23.399 18.3798C23.399 19.5329 22.4642 20.4676 21.3113 20.4676C21.3113 20.4676 19.5282 20.727 14.8973 20.727C10.2396 20.727 8.60229 20.4676 8.60229 20.4676C7.44916 20.4676 6.51416 19.5329 6.51416 18.3798V11.4903C6.51416 10.3374 7.4489 9.40243 8.60229 9.40243C8.60229 9.40243 10.2397 9.14306 14.8921 9.14306C19.5282 9.14306 21.3113 9.40243 21.3113 9.40243C22.4642 9.40243 23.399 10.3372 23.399 11.4903V18.3798Z" fill="#FA3A10"/>
<path d="M12.4006 18.2411L18.0947 14.9537L12.4006 11.6663V18.2411Z" fill="#FA3A10"/>
</svg>
